<svg width="36" height="36" viewBox="0 0 36 36" fill="none" xmlns="http://www.w3.org/2000/svg">
<g clip-path="url(#clip0_930_447)">
<path d="M31.0514 18.1823L30.2459 15.8935L21.557 24.5826C20.7081 25.4332 19.5771 25.9009 18.3756 25.9009C17.1743 25.9009 16.0433 25.4332 15.1944 24.5826L8.81963 18.2079C7.96906 17.359 7.50107 16.228 7.50107 15.0267C7.50107 13.8251 7.96906 12.6941 8.81963 11.8452C9.66855 10.9949 10.7995 10.5269 12.0008 10.5269C13.2024 10.5269 14.3334 10.9949 15.1823 11.8452L18.3756 15.0371L26.9312 6.48171L26.355 4.84676L26.0897 3.25987C25.9233 2.24287 25.2526 1.39999 24.3002 1.00533C23.3433 0.607917 22.2755 0.730957 21.437 1.33243L17.2688 4.35021L13.0538 1.32474C12.2079 0.727936 11.1371 0.60929 10.186 1.00835C9.24121 1.40438 8.57657 2.24589 8.41014 3.25685L7.59417 8.33693L2.48388 9.18585C1.46853 9.35256 0.625648 10.023 0.229612 10.9754C-0.166423 11.9309 -0.0433831 13.0017 0.558086 13.8402L3.57449 18.0085L0.549022 22.2232C-0.0464041 23.0691 -0.166423 24.1415 0.232633 25.091C0.630042 26.036 1.4699 26.7004 2.48086 26.8671L7.56121 27.6844L8.41014 32.7931C8.5752 33.8071 9.24121 34.6486 10.186 35.0446C11.1384 35.4434 12.2109 35.325 13.0645 34.7205L17.2328 31.7027L21.437 34.7205C21.9514 35.088 22.5499 35.277 23.1574 35.277C23.5427 35.277 23.9297 35.202 24.3002 35.0476C25.2543 34.6516 25.9233 33.8087 26.0897 32.7961L26.9071 27.716L32.0157 26.8671C33.0297 26.7004 33.8698 26.036 34.2672 25.091C34.6663 24.1415 34.5477 23.0691 33.9432 22.2127L31.0514 18.1823Z" fill="#FF9D15"/>
<path d="M18.3755 22.9016C17.9916 22.9016 17.6076 22.7547 17.3151 22.4622L10.9404 16.0875C10.354 15.5011 10.354 14.553 10.9404 13.9667C11.527 13.38 12.4748 13.38 13.0615 13.9667L18.3755 19.2807L33.4392 4.21712C34.0258 3.63075 34.9736 3.63075 35.5602 4.21712C36.1466 4.80348 36.1466 5.75155 35.5602 6.33791L19.4359 22.4622C19.1434 22.7547 18.7595 22.9016 18.3755 22.9016Z" fill="#0052DA"/>
</g>
<defs>
<clipPath id="clip0_930_447">
<rect width="36" height="36" fill="white"/>
</clipPath>
</defs>
</svg>
